<svg xmlns="http://www.w3.org/2000/svg" viewBox="0 0 46.74 47.19"><title>BACK icon blue</title><path d="M13.52,15.22c1-.29,2.16-.56,3.44-.8s2.65-.42,4.11-.57a39.08,39.08,0,0,1,4.29-.18,25.08,25.08,0,0,1,3.91.34,8.92,8.92,0,0,1,3,1,2.23,2.23,0,0,0-.09-.68,5.79,5.79,0,0,0-.28-.79,6.55,6.55,0,0,0-.45-.81,5.25,5.25,0,0,0-.53-.71,3.57,3.57,0,0,0-1.56-.52,18,18,0,0,0-2.64-.17,33,33,0,0,0-3.43.17c-1.26.11-2.56.28-3.92.49s-2.73.48-4.11.79-2.7.68-4,1.08c.14-.31.29-.61.46-.91a8.59,8.59,0,0,1,.58-.91c.23-.32.49-.66.79-1s.65-.79,1.06-1.24c.53-.61,1.09-1.21,1.68-1.79S17,6.87,17.6,6.39a14.67,14.67,0,0,1,1.68-1.22,5.64,5.64,0,0,1,1.46-.68c0-.11-.1-.38-.37-.81s-.6-.91-1-1.42-.77-1-1.19-1.53a9.68,9.68,0,0,0-1-1.07c-.68.77-1.31,1.47-1.91,2.11S14.14,3,13.61,3.54s-1,1.07-1.5,1.56-.9,1-1.31,1.41-.59.7-.87,1-.56.75-.83,1.16-.55.88-.82,1.38-.56,1.05-.85,1.68a5,5,0,0,0,.81,1.51A17.08,17.08,0,0,0,9.73,15a6.59,6.59,0,0,0,1.52,1,12.67,12.67,0,0,1,2.27-.83Z" style="fill:#6a9ad2"/><path d="M46.24,21.09a22.74,22.74,0,0,0-.76-7.2,18.24,18.24,0,0,0-3-6.1,14.32,14.32,0,0,0-5-4.22,14.71,14.71,0,0,0-4.2-.14A42,42,0,0,0,28,4.29,42.54,42.54,0,0,0,22.35,6,37,37,0,0,0,17.2,8.28a2.5,2.5,0,0,0-.13,1.13,2.56,2.56,0,0,0,.31,1.1c1.85-.48,3.71-.87,5.6-1.19s3.68-.54,5.39-.67A37.7,37.7,0,0,1,33,8.54,18.16,18.16,0,0,1,36.62,9q2.75,2.82-.29,10.33a33.83,33.83,0,0,1-6.67,10.5,34.17,34.17,0,0,1-10,7.42,28.65,28.65,0,0,1-7.25,2.46A10.05,10.05,0,0,1,7,39.62q-2.13-.87-1-3.55,1.86-4.64,10.36-7.77a6.57,6.57,0,0,0-1.17-2.58,4.82,4.82,0,0,0-2-1.61,4.65,4.65,0,0,0-3-.07,10,10,0,0,0-3.3,1.63,15.94,15.94,0,0,0-3,2.93,15.26,15.26,0,0,0-2.27,3.87c-1.2,3-1.25,5.6-.17,7.91s3.22,4.1,6.43,5.4a22.14,22.14,0,0,0,10.45,1.47A31.81,31.81,0,0,0,29,44.34a33.87,33.87,0,0,0,9.3-6.48,27.23,27.23,0,0,0,6.31-9.35,22.87,22.87,0,0,0,1.65-7.42Z" style="fill:#6a9ad2"/></svg>