<?xml version="1.0" standalone="no"?>
<!DOCTYPE svg PUBLIC "-//W3C//DTD SVG 20010904//EN"
 "http://www.w3.org/TR/2001/REC-SVG-20010904/DTD/svg10.dtd">
<svg version="1.0" xmlns="http://www.w3.org/2000/svg"
 width="48.000000pt" height="48.000000pt" viewBox="0 0 48.000000 48.000000"
 preserveAspectRatio="xMidYMid meet">
<metadata>
Created by potrace 1.10, written by Peter Selinger 2001-2011
</metadata>
<g transform="translate(0.000000,48.000000) scale(0.100000,-0.100000)"
fill="#000000" stroke="none">
<path d="M87 449 c-45 -34 -60 -147 -28 -206 5 -10 19 -38 31 -63 45 -94 138
-163 220 -164 80 0 150 51 150 109 0 26 -55 75 -84 75 -61 0 -108 -50 -85 -91
10 -20 22 -18 25 2 1 5 2 14 3 19 0 6 14 10 29 10 29 0 62 -26 62 -48 0 -32
-104 -43 -164 -18 -117 49 -217 263 -158 336 17 21 22 23 36 10 44 -36 44 -90
-1 -90 -21 0 -24 -2 -13 -15 18 -22 53 -18 78 8 31 33 30 90 -3 122 -29 30
-64 32 -98 4z"/>
<path d="M125 258 c10 -34 23 -44 31 -25 6 18 -11 47 -28 47 -5 0 -6 -10 -3
-22z"/>
</g>
</svg>
