<?xml version="1.0" standalone="no"?>
<!DOCTYPE svg PUBLIC "-//W3C//DTD SVG 20010904//EN"
 "http://www.w3.org/TR/2001/REC-SVG-20010904/DTD/svg10.dtd">
<svg version="1.0" xmlns="http://www.w3.org/2000/svg"
 width="48.000000pt" height="48.000000pt" viewBox="0 0 48.000000 48.000000"
 preserveAspectRatio="xMidYMid meet">
<metadata>
Created by potrace 1.10, written by Peter Selinger 2001-2011
</metadata>
<g transform="translate(0.000000,48.000000) scale(0.065000,-0.065000)"
fill="#6b9ad1" stroke="none">
<path d="M107 382 c-31 -34 -33 -86 -4 -144 47 -96 118 -151 195 -151 49 0 90
25 111 68 13 27 12 30 -13 52 -32 27 -53 29 -84 7 -16 -11 -22 -24 -20 -42 3
-29 27 -43 24 -15 -1 23 46 30 63 9 17 -21 7 -33 -37 -47 -78 -23 -175 32
-218 125 -27 59 -30 84 -10 111 14 19 15 19 35 1 26 -24 27 -41 1 -59 -18 -13
-19 -15 -5 -21 24 -9 54 11 61 40 14 57 -62 107 -99 66z"/>
<path d="M150 248 c0 -18 18 -34 28 -24 3 4 -2 14 -11 23 -16 16 -17 16 -17 1z"/>
</g>
</svg>
