<svg xmlns="http://www.w3.org/2000/svg" viewBox="0 0 587.36 383.28"><title>Contact Icon_EMAIL_blue</title><path d="M517.13.33A481.54,481.54,0,0,0,430,4.86c-27.57,4.08-44.9,9.4-51.86,15.91s-13.24,17-18.74,31.59h0l0,.08q59.87-20.7,115.54-18.76Q537.32,35.87,536.33,64q-.58,16.68-10.64,59L479.56,319.36q-8.69,35.36-8.82,39.42-.57,16,13.41,16.49,11.73.41,42.1-9.82v0l.06,0A22,22,0,0,1,521.37,351c.17-5.55,1.81-14.67,4.81-27.35l51.69-219.81c6-25.42,9.11-42.69,9.45-51.8Q589,2.85,517.13.33Z" style="fill:#6a9ad2"/><path d="M228,328.6h0l0,0q-59.86,20.7-115.54,18.76c-1.54-.06-3-.12-4.52-.2q-48.09-2.53-55.58-21.69c0-.09-.08-.19-.12-.29-.09-.25-.16-.5-.24-.76s-.18-.51-.26-.78c0-.08,0-.16,0-.24A21.58,21.58,0,0,1,51,317q.1-3.14.55-7.15Q53.49,292.36,61.65,258L107.79,61.69q2.83-11.58,4.76-19.79,1.86-7.95,2.87-12.77a59,59,0,0,0,1.2-6.9q.45-12-7.34-15.26a17.12,17.12,0,0,0-6.09-1.22q-7.6-.27-23.07,3.95-8.37,2.28-19,5.85h0c.38.49.73,1,1.06,1.48a22.09,22.09,0,0,1,3.67,9.37A20.79,20.79,0,0,1,66,30,105.54,105.54,0,0,1,63.8,45.55q-1.06,5.27-2.6,11.78L9.52,277.14C8.19,282.77,7,288,6,292.8Q.42,318.24,0,329q-1.59,45.45,59.84,51c3.32.3,6.77.53,10.38.66a493.67,493.67,0,0,0,69.06-2.25q9.15-1,18.08-2.28h.09q41.32-6.1,51.81-15.89a46.18,46.18,0,0,0,4.65-5.08Q221.68,345.46,228,328.6Z" style="fill:#6a9ad2"/><path d="M425.29,79.42v0l0,0q-3.56,28.92-20,65.69-5.43,12.09-12.25,25-27.51,52.32-68.73,100.94-7.8-92.57-30.9-158.51t-47.9-66.74c-10.36-.4-22.24,2.49-35.55,8.66l0,0h0q30.6,35.39,51.91,103.61t19.37,123.91q-.51,14.43-6.16,34.09,29.39-1.23,42.25-7.55t32.16-29.13Q365,261,379.75,241.58q22.74-29.9,43.51-62,34.22-53,34.75-68.33C458.41,99.85,447.48,89.21,425.29,79.42Z" style="fill:#6a9ad2"/></svg>