<?xml version="1.0" standalone="no"?>
<!DOCTYPE svg PUBLIC "-//W3C//DTD SVG 20010904//EN"
 "http://www.w3.org/TR/2001/REC-SVG-20010904/DTD/svg10.dtd">
<svg version="1.0" xmlns="http://www.w3.org/2000/svg"
 width="48.000000pt" height="48.000000pt" viewBox="0 0 48.000000 48.000000"
 preserveAspectRatio="xMidYMid meet">
<metadata>
Created by potrace 1.10, written by Peter Selinger 2001-2011
</metadata>
<g transform="translate(0.000000,48.000000) scale(0.060000,-0.060000)"
fill="#b18f4b" stroke="none">
<path d="M118 398 c-33 -23 -37 -48 -8 -48 21 0 43 32 38 55 -2 11 -9 9 -30
-7z"/>
<path d="M278 263 l-69 -67 20 48 c26 59 26 76 2 76 -14 0 -24 -13 -36 -47
-18 -55 -27 -67 -73 -106 -67 -55 -81 -24 -32 74 17 33 28 64 25 69 -12 19
-36 10 -47 -17 -7 -16 -25 -45 -41 -65 -25 -34 -27 -42 -6 -40 3 1 4 -10 1
-24 -11 -59 48 -71 105 -22 37 33 37 32 16 -19 -11 -28 32 -11 61 24 67 78
119 133 127 133 4 0 -3 -23 -17 -50 -40 -80 -21 -132 42 -116 33 9 129 100
120 115 -4 5 -29 -13 -56 -40 -82 -82 -110 -48 -54 64 27 51 26 77 -2 77 -9 0
-47 -30 -86 -67z"/>
</g>
</svg>
