<?xml version="1.0" standalone="no"?>
<!DOCTYPE svg PUBLIC "-//W3C//DTD SVG 20010904//EN"
 "http://www.w3.org/TR/2001/REC-SVG-20010904/DTD/svg10.dtd">
<svg version="1.0" xmlns="http://www.w3.org/2000/svg"
 width="48.000000pt" height="48.000000pt" viewBox="0 0 48.000000 48.000000"
 preserveAspectRatio="xMidYMid meet">
<metadata>
Created by potrace 1.10, written by Peter Selinger 2001-2011
</metadata>
<g transform="translate(0.000000,48.000000) scale(0.100000,-0.100000)"
fill="#b18f4b" stroke="none">
<path d="M90 385 c-18 -22 -8 -50 19 -50 28 0 47 25 38 49 -8 20 -40 21 -57 1z"/>
<path d="M36 257 c-29 -82 -30 -100 -8 -127 17 -21 23 -23 45 -13 14 7 44 28
65 48 36 32 40 33 45 16 6 -24 47 -48 47 -28 0 18 57 97 70 97 5 0 -2 -29 -15
-65 -31 -80 -31 -81 -1 -100 22 -15 27 -15 54 -1 26 13 142 152 142 169 0 19
-21 1 -62 -56 -89 -121 -122 -129 -68 -17 l34 70 -21 21 c-19 20 -22 20 -51 5
-17 -9 -40 -27 -51 -42 l-21 -26 3 38 c2 33 -1 39 -19 42 -16 2 -23 -4 -28
-21 -7 -28 -108 -127 -130 -127 -21 0 -20 2 9 60 14 27 25 56 25 63 0 12 -30
47 -41 47 -2 0 -12 -24 -23 -53z"/>
</g>
</svg>
