<svg xmlns="http://www.w3.org/2000/svg" viewBox="0 0 482 295.1"><title>Contact Icon_LINKEDIN_blue</title><path d="M99.08,88.85q16.64.59,19.6,11.28a16.38,16.38,0,0,1-2.07,11.52,98.08,98.08,0,0,0-4.64,8.77c-1,2.18-1.69,3.92-2.18,5.23q-3.57,6.49-7.09,12.33Q62.14,212,59.42,232.47a141.16,141.16,0,0,0-1.19,15.19q-.33,9.27,4.79,15.39Q72,274,89.59,265.3T139.13,230q31.91-26.7,52.13-52.48c1.85-2.13,3.86-2.61,6.05-1.44s3.25,2.33,3.21,3.42a6.7,6.7,0,0,1-1.46,3.59q-10.6,17.5-37.52,44.38-44.19,44.15-73.17,53.72-16.84,5.37-28.15,5-26.62-.93-34.39-26.36a40.51,40.51,0,0,1-.94-11.29q.81-23.14,23.74-69.36-3.6,7.17-27.11,32.16-6.21,6.42-9.31-.32a8,8,0,0,1-.54-3.66q.08-2.31,2.86-5.53,34-39.2,53.61-66.32c-.81-2.24-.27-5.08,1.63-8.55q14.6-36.57,24.66-38.21ZM154.73,2.74l-6.07,21q-.21,6-9.32,18.88T125.57,55.35q-28.62-1-28.13-14.89.11-2.62,29.47-23.46l11.61-8.21q11-8.88,13.64-8.79A2.36,2.36,0,0,1,154.73,2.74Z" style="fill:#6a9ad2;stroke:#6a9ad2;stroke-miterlimit:1;stroke-width:7.71999979019165px"/><path d="M371.41,93.73q15.3.54,14.74,16.74t-16.87,44.1Q353,182.47,345,200.07q-13.71,30-14.34,48.16t4.48,24.33q9.61,10.94,27.25,1.94T412,239.15Q443.86,212.8,463.42,187c1.85-2.14,4-2.61,6.38-1.43s3.58,2.34,3.55,3.43a6.7,6.7,0,0,1-1.46,3.59q-10.61,17.5-37.53,44.38T382.9,279.85q-24.56,16-47.84,15.21-22.6-1.46-31.58-11.36T295,259.24a145.1,145.1,0,0,1,3.65-28q3.12-13.46,11.08-31.06,13-28,22.51-43.57T342,136.07c.11-3.31-1.61-5-5.15-5.15q-10.65-.36-41.5,24.38-21.3,18.47-63.41,70.28t-47.56,54.95Q160,291.6,154,291.39t-5.92-2.19a18,18,0,0,1,1.53-5.58q1.47-3.6,14.23-35.59t27.77-70.2q15-38.22,18.27-46a77.91,77.91,0,0,0,4.46-13.42,67.41,67.41,0,0,1,2.67-9.51,33.29,33.29,0,0,1,5.3-8.75,12.33,12.33,0,0,1,9.83-5A69.78,69.78,0,0,1,247.37,97q9.25,2,9,8.59-.16,4.64-8,19.92T202.72,230.85q25-28.24,62.9-65t63.91-55.71Q355.44,93.18,371.41,93.73Z" style="fill:#6a9ad2;stroke:#6a9ad2;stroke-miterlimit:1;stroke-width:7.71999979019165px"/></svg>