<svg xmlns="http://www.w3.org/2000/svg" viewBox="0 0 850.39 850.39"><title>Master_Logo_FINAL_BLUE</title><path d="M213.84,674.8h0a4.31,4.31,0,0,0-2.47-1.07q-4,5.1-14,8.49a54.85,54.85,0,0,1-20.44,2.8,40.16,40.16,0,0,1-19.3-5.81q.12.3.27.6a11.93,11.93,0,0,0,4.27,4.15,36.76,36.76,0,0,0,9,4,40.65,40.65,0,0,0,12.67,1.46,48.53,48.53,0,0,0,14.45-2.57,35.71,35.71,0,0,0,10.62-5.56q4.44-3.45,5-6.47Z" style="fill:none;stroke:#414042;stroke-miterlimit:2.13899993896484;stroke-width:6.37117539149056px"/><path d="M432.94,162q-6.68-41.88-33.89-77.54t-80.41-55.7Q299,21.33,273,19.7a186.51,186.51,0,0,0-49.85,3.35,140.94,140.94,0,0,0-43.7,16.72q-19.87,11.77-27.17,31.17-5.13,13.64-3.85,31.33A44.52,44.52,0,0,0,162,132a110,110,0,0,1,19.37-42.71A107.66,107.66,0,0,1,215.7,58.79q20.16-11.3,45.92-12.63T316,55.6q35.2,13.26,55.17,38.4A155.63,155.63,0,0,1,399.52,149a174,174,0,0,1,5.88,61.25,211.17,211.17,0,0,1-12.5,58l-5.69,15.09L251,498.35a47.64,47.64,0,0,0-4.46,8.15,20.66,20.66,0,0,0-1.21,3.35c-19.66-.8-38.19-1.22-52.2-1.72q-7.17-.24-14.53,0T160,510.08a59,59,0,0,0-19.77,6.23c-5.68,3.1-9.42,7.15-11.2,12.21a416.54,416.54,0,0,1,51-1.15q11.14.4,28.23,2.14c11.38,1.14,18.52,1.78,21.46,1.88,10.86.39,26.88,3.18,41.27,3.18.12-.24.26-.48.39-.73q1.52-2.52,8.56-11.88l.52-.7c2.92-3.42,5.56-6.4,6.91-9l-.36,0q6-8.46,13.29-19.51,11.94-18.06,26.46-40.44T355.54,407q14.23-22.92,26.86-44t21-35.93a317.51,317.51,0,0,0,27.31-79.88A236.76,236.76,0,0,0,432.94,162Z" style="fill:#414042"/><path d="M126.09,583.43c1.7-5.21,5.35-9.42,11-12.69A58.16,58.16,0,0,1,156.74,564q11.17-1.85,18.57-2.28t14.54-.29q35.84.67,86,3.94-4.15,8.54-18.39,14a80,80,0,0,1-30.58,5.2c-2.92-.05-10.07-.59-21.48-1.56s-20.82-1.54-28.26-1.68A403.87,403.87,0,0,0,126.09,583.43Z" style="fill:#414042"/><path d="M116.3,639.22c1.51-5.25,5-9.59,10.55-13.06a58,58,0,0,1,19.4-7.39,178.05,178.05,0,0,1,18.48-2.92q7.36-.68,14.54-.81,35.83-.56,86,.94-3.84,8.65-17.89,14.66a80,80,0,0,1-30.38,6.25q-4.38.08-21.52-.8c-11.43-.59-20.88-.81-28.3-.69A407.11,407.11,0,0,0,116.3,639.22Z" style="fill:#414042"/><path d="M236,319.49l1,.28Z" style="fill:#6a9ad2"/><path d="M228.52,453.88c-.31.68-.61,1.29-.9,1.84C227.91,455.17,228.21,454.56,228.52,453.88Z" style="fill:#6a9ad2"/><path d="M224.31,460a10.39,10.39,0,0,0,2.29-2.62A10.39,10.39,0,0,1,224.31,460Z" style="fill:#6a9ad2"/><path d="M247.08,377.16c-.18,1.32-.35,2.57-.51,3.77C246.73,379.73,246.9,378.48,247.08,377.16Z" style="fill:#6a9ad2"/><path d="M267.89,346.32a5.75,5.75,0,0,0-.1-1.54,20.22,20.22,0,0,1-.26-2.62,10.33,10.33,0,0,1,.14-1.62,10.46,10.46,0,0,0,.14-1.63,28.07,28.07,0,0,0-1.62-7.76c-.87-2.39-2-3.89-3.49-4.52-.33-.09-.86-.25-1.61-.49s-1.7-.53-2.88-.85l-4-1.1-4.77-1.32a18.77,18.77,0,0,0-2.56-5.8,7.84,7.84,0,0,0-3.36-2.93,1.73,1.73,0,0,0-1.8.37h0a4,4,0,0,0-.53.55,10,10,0,0,0-1.45,3.79c0,.1-.05.2-.07.3s-.09.44-.13.66-.08.34-.11.53c-.65-.18-1.19-.31-1.63-.4s-1-.23-1.83-.44c-1-.27-2.11-.53-3.38-.77-.49-.09-.95-.19-1.41-.29.46.1.92.2,1.41.28-.49-.09-1-.18-1.42-.29-.75-.16-1.48-.33-2.16-.52a18.13,18.13,0,0,0-3-.59,29.49,29.49,0,0,1-3-.49,25.8,25.8,0,0,0-3.59-.6c-.93-.07-2.11-.2-3.55-.37l-3.45-.51c-1.15-.16-2.25-.28-3.29-.35a5.69,5.69,0,0,1-1.9-.41,5.1,5.1,0,0,0-1.79-.38,10.34,10.34,0,0,0-2.25.27,5.49,5.49,0,0,1-1.7.19A3.88,3.88,0,0,0,200,315c-.63.24-1.3.48-2,.73a25,25,0,0,0-2.47,1,24,24,0,0,0-2.83,1.6c-.18.13-.39.26-.59.38l-.45.28c-.28.16-.56.32-.87.48a22.54,22.54,0,0,0-2.17,1.29c-.69.47-1.44,1-2.25,1.6l-2.28,1.7c-.61.42-1.21.87-1.8,1.33s-1.17.95-1.74,1.46c-.84.73-1.72,1.53-2.63,2.38a24,24,0,0,0-2.37,2.57c-.56.73-1.17,1.47-1.84,2.21a12.78,12.78,0,0,0-1.64,2.26,23.06,23.06,0,0,0-1.14,2.35,10.3,10.3,0,0,0-.66,2.15c-.17.84-.31,1.73-.44,2.65s-.23,1.82-.33,2.68a35.58,35.58,0,0,0-.32,6.18,35.43,35.43,0,0,1-.28,6.08c-.12.93-.32,2.07-.6,3.44s-.48,2.51-.61,3.44a27.13,27.13,0,0,0-.16,3.95,37.44,37.44,0,0,1-.06,4,6.53,6.53,0,0,1-.33,1.74,6.17,6.17,0,0,0-.34,1.74c-.11,1.67-.14,3.39-.09,5.19s.07,3.53,0,5.21a10.7,10.7,0,0,1-.26,2.26,14.87,14.87,0,0,0-.34,2.12c-.08,1.53-.13,4-.15,7.45s-.1,5.79-.25,7.08a23.33,23.33,0,0,0,0,3.55,28.31,28.31,0,0,1,.05,3.79c-.05.65-.18.8-.39.44s-.35-.2-.4.45a23.11,23.11,0,0,0,.25,4.39,22.42,22.42,0,0,1,.21,4.5c-.09,1.3-.25,2.74-.48,4.3s-.39,3-.5,4.41a39.44,39.44,0,0,0,0,5.33c.13,2.41.18,4.16.15,5.26s-.06,2.09-.15,3.17-.2,2.09-.32,3c-.19,1.65-.31,3.28-.38,4.89a34.77,34.77,0,0,1-.42,4.32,5.53,5.53,0,0,1-.6,1.72,2.52,2.52,0,0,0-.34,1.57c.09.69.23,1.46.41,2.33a4.08,4.08,0,0,0,1,2.05,17.28,17.28,0,0,1,1.93,2.92,6.56,6.56,0,0,0,1.79,2.32,3.8,3.8,0,0,0,1.53.59h0a1.58,1.58,0,0,0,.38,0h.05a1.39,1.39,0,0,0,.36-.12,1.39,1.39,0,0,1-.36.12,1.34,1.34,0,0,0,.89-.63.74.74,0,0,1-.08.13.74.74,0,0,0,.08-.13l.05-.07a2.13,2.13,0,0,0,.2-.4,2.13,2.13,0,0,1-.2.4,2.13,2.13,0,0,0,.2-.4c.51-1.3.91-2.47,1.2-3.5a30.85,30.85,0,0,1,1-3,22.88,22.88,0,0,0,1-3.33,8.07,8.07,0,0,1,1.71-3.42,8,8,0,0,0,1.69-3.74,18.1,18.1,0,0,0,.23-4.76,23,23,0,0,1,.23-5.1c.09-.67.19-1.41.31-2.22l0-.15,0,.15c.14-.91.3-1.91.47-3,.24-1.44.42-2.75.56-3.93,0,.35-.08.69-.13,1.06.05-.37.09-.72.14-1.06,0-.49.11-1,.15-1.42a36.6,36.6,0,0,0,.09-7.07,36,36,0,0,1,.18-7.38,32.17,32.17,0,0,1,1-4.94c.08-.25.15-.49.23-.72s.13-.36.2-.54.15-.41.23-.6c-.08.19-.16.39-.23.6.07-.2.14-.42.22-.61a26.06,26.06,0,0,0,1.66-6.81c.28-2,.5-4.87.64-8.64s.34-6.58.59-8.43a43.31,43.31,0,0,1,1-5.28,32.59,32.59,0,0,0,.86-5.31,64.21,64.21,0,0,0,.06-6.58,32.63,32.63,0,0,1,.27-6.2q.42-3,1.17-6.77c.5-2.52.92-4.63,1.26-6.31q1.5-7.57,2.89-12.29t3.3-4.75a4.63,4.63,0,0,1,1.61.28,4.05,4.05,0,0,0,1.75.2,5.2,5.2,0,0,0,1.94-.52,4.21,4.21,0,0,1,1.92-.41,22.65,22.65,0,0,1,3,.32,25.28,25.28,0,0,0,3.08.35c1,.05,2,.05,3,0a18.41,18.41,0,0,1,3,.1,11.24,11.24,0,0,1,2.95.81,16.73,16.73,0,0,0,2.88,1,3.4,3.4,0,0,1,1.51.86,3.31,3.31,0,0,0,1.5.86,8.38,8.38,0,0,0,2.46.29,8,8,0,0,1,2.46.29,11.36,11.36,0,0,0,1.72.3,11.31,11.31,0,0,1,1.71.31l1.87.51,1.77.49,1.52.42,1.32.36c-.15,1.29-.28,2.64-.4,4.05s-.26,2.8-.43,4.16q-.42,3.76-.79,6.54t-.91,6.63c-.27,1.7-.59,2.59-1,2.67s-.73,1-1.07,2.65c-.26,1.39-.51,3.09-.73,5.09.09-.75.17-1.47.26-2.13-.09.66-.18,1.38-.26,2.14-.15,1.33-.28,2.79-.41,4.4a74,74,0,0,1-1.19,9.26,59.56,59.56,0,0,1-1.65,6.59q-.9,2.81-1.81,6.43c-.63,2.71-1.19,5.32-1.68,7.8s-1.07,4.91-1.72,7.24a34.33,34.33,0,0,0-1,5.1,32.6,32.6,0,0,1-.93,4.79,21.38,21.38,0,0,1-1.88,4.58,23.79,23.79,0,0,0-1.8,3.94c-.56,1.48-1.24,2.08-2,1.82a4.3,4.3,0,0,1-2.13-1.64c-.71-1-1.38-1.93-2-2.77a2.39,2.39,0,0,0-1.21-1h-.08a.66.66,0,0,0-.24,0h0q-1.86.93,0,10.88t3.67,13.43a7.91,7.91,0,0,1,.68,2.08,5,5,0,0,0,.82,2c.47.57,1,1.23,1.72,2a3.46,3.46,0,0,0,2.25,1.23,7,7,0,0,0,4.1-.65c1.08-.59,2.32-2.09,3.71-4.52a50.86,50.86,0,0,0,2.92-6.85c.15-.41.31-.84.46-1.28-.14.41-.29.8-.43,1.19.32-.86.63-1.77.95-2.74s.7-2.15,1.06-3.32c-.36,1.17-.71,2.28-1,3.31.34-1,.69-2.15,1.06-3.31l0-.14c.07-.24.14-.46.22-.7-.08.24-.15.46-.22.7q1.66-5.43,3.59-12.78c.58-2.05,1.1-4.28,1.56-6.66s1-4.83,1.65-7.31c.22-1.05.44-2.15.67-3.31s.49-2.32.82-3.49q1.22-4.66,2.28-8.8c.71-2.76,1.4-5.83,2.07-9.19a41,41,0,0,0,.59-4.16c.1-1.23.26-2.63.49-4.19q.43-3.44,1-7.54c.38-2.74.77-5.17,1.15-7.28.39-2.85.69-5.32.93-7.4.14-1.26.3-2.63.46-4.08.11-.93.23-1.89.35-2.9-.12,1-.24,2-.35,2.9.11-.94.22-1.9.34-2.91.19-1.42.37-2.85.53-4.29s.28-2.81.36-4.11c.59.16,1.19.34,1.81.55s1.18.38,1.7.52a13.7,13.7,0,0,1,2.81,1.11,13.27,13.27,0,0,0,2.52,1,43.22,43.22,0,0,0,5.66,1.33,2.16,2.16,0,0,0,1.21-.72,4,4,0,0,0,1-2.11,2.92,2.92,0,0,0,.08-.46,2.6,2.6,0,0,1-.08.45A2,2,0,0,0,267.89,346.32Zm-98.79,125a2.35,2.35,0,0,0,.38,0A1.58,1.58,0,0,1,169.1,471.27Zm23-152.55-.44.27Zm-11.59,94.63c.08-.25.15-.49.23-.72C180.66,412.86,180.59,413.1,180.51,413.35Zm30.14,15.94a.66.66,0,0,1,.24,0A.5.5,0,0,0,210.65,429.29Zm29.09-110.44-.06.3Zm-.19,1c0,.18-.07.35-.1.53h0C239.47,320.15,239.51,320,239.55,319.81Z" style="fill:#6a9ad2"/><path d="M433.38,800.84a196.4,196.4,0,0,0-15.95-13.31q-9.21-6.94-18.38-14t-11.4-13.28q-.75-2.07,3.06-5.56a54.25,54.25,0,0,1,10.48-7.15A92.5,92.5,0,0,1,416.68,741a79.54,79.54,0,0,1,39.17-2.36,56.13,56.13,0,0,1,19.79,8.13c-.41,2.18-2.91,3.78-7.47,4.84s-9.52,2.11-14.85,3.18a116.19,116.19,0,0,0-15,4q-7,2.38-7.9,7-1.43,7.44,5.12,13.4a127.4,127.4,0,0,0,14.87,11.53,132.73,132.73,0,0,1,15.12,11.7q6.78,6.12,5.32,13.8-.63,3.25-6.51,5.74a59.33,59.33,0,0,1-15.51,3.65,150.11,150.11,0,0,1-22.07.83,163.64,163.64,0,0,1-26.19-3,76.73,76.73,0,0,1-9.78-2.48c-2.86-1-4.17-2-4-3,.38-2,3.16-3.13,8.32-3.35s10.86-.2,17.08,0,11.91.23,17.08,0,7.92-1.25,8.28-3.11Q440.13,807.2,433.38,800.84Z" style="fill:#6b9ad1"/><path d="M658,248.15Q725.69,52,748.45,29.86a18.58,18.58,0,0,1,12.71-5.73,14.79,14.79,0,0,1,11.44,4.36c4.79,4.92,7,13.48,6.67,25.63S775.45,83,768.81,104.21L749.49,164q-9.88,27.36-30.15,73.68L687,311.38l-35.82,78.13Q600.27,500,573.57,526,590.36,444.28,658,248.15Z" style="fill:#414042"/><path d="M590.09,593.49a50.47,50.47,0,0,0-3.91-15.2c-.53-1.21-1.09-2.42-1.71-3.61a3.24,3.24,0,0,0-1.22-.82,6.72,6.72,0,0,0-2.85-.49,9.1,9.1,0,0,0-2.85.55,12.67,12.67,0,0,0-3.06,1.63l-.44.34a4.68,4.68,0,0,0-1,1.14,1.87,1.87,0,0,0-.12,2,36.33,36.33,0,0,1,3.9,13.33,58.22,58.22,0,0,1-.83,16.29,87.41,87.41,0,0,1-2.37,9.79,78.26,78.26,0,0,1-10.56,22,102.86,102.86,0,0,1-9.56,12.29,116.57,116.57,0,0,1-10,9.76,143.94,143.94,0,0,1-18.87,13.86q-4.08,2.55-8.26,4.85-6.19,3.44-12.58,6.34c1.37-1.11,2.75-2.25,4.16-3.46,6.59-5.77,10.34-10.78,11.28-15.09a25,25,0,0,0,.35-10.86,113.5,113.5,0,0,0-4.71-13.68,120.62,120.62,0,0,1-4.7-13.7q-5.08-19.65,1.88-27.2Q521,587,540.89,578.09a4.19,4.19,0,0,0,2.61-2.78,3.86,3.86,0,0,0-.65-3.19c-.67-1-1.35-1.46-2-1.43s-4.62,1.83-11.87,5.48-14.37,7.45-21.46,11.41A71.91,71.91,0,0,0,489,602.37c-5.27,5.91-8.38,11-9.31,15.3l.08,8.88q1.14,3.91,7.41,18.07,10.64,21.95,8.68,30.86-3.12,14.38-26.53,20.92c-3,1.39-4,3.16-3.15,5.27s1.77,3.16,2.66,3.14q8.51-.22,19.52-6.51A179.82,179.82,0,0,0,513.4,689q6.66-3,13.3-6.66A172.11,172.11,0,0,0,543.35,672a135.75,135.75,0,0,0,28.07-26.18q14.48-17.68,18-37.11A55.42,55.42,0,0,0,590.09,593.49Z" style="fill:#414042"/></svg>