<?xml version="1.0" standalone="no"?>
<!DOCTYPE svg PUBLIC "-//W3C//DTD SVG 20010904//EN"
 "http://www.w3.org/TR/2001/REC-SVG-20010904/DTD/svg10.dtd">
<svg version="1.0" xmlns="http://www.w3.org/2000/svg"
 width="48.000000pt" height="48.000000pt" viewBox="0 0 48.000000 48.000000"
 preserveAspectRatio="xMidYMid meet">
<metadata>
Created by potrace 1.10, written by Peter Selinger 2001-2011
</metadata>
<g transform="translate(0.000000,48.000000) scale(0.100000,-0.100000)"
fill="#000000" stroke="none">
<path d="M55 378 c-2 -7 -16 -69 -31 -137 -26 -121 -26 -125 -8 -138 22 -17
126 -12 149 7 22 18 18 32 -4 20 -28 -14 -118 -13 -123 2 -4 11 15 104 48 232
5 20 2 26 -10 26 -9 0 -18 -6 -21 -12z"/>
<path d="M340 383 c-28 -5 -50 -21 -50 -35 0 -5 9 -4 19 2 11 5 42 10 70 10
49 0 51 -1 51 -27 0 -16 -11 -75 -25 -132 -14 -57 -23 -106 -21 -109 18 -17
34 21 60 138 28 129 29 133 11 146 -18 14 -64 16 -115 7z"/>
<path d="M172 353 c37 -73 63 -169 52 -198 -4 -8 -2 -15 4 -15 20 0 66 46 103
103 32 49 37 63 27 75 -10 12 -14 11 -22 -9 -16 -40 -70 -129 -78 -129 -4 0
-7 3 -6 8 1 4 -1 30 -5 57 -8 58 -39 115 -63 115 -8 0 -14 -3 -12 -7z"/>
</g>
</svg>
