<?xml version="1.0" standalone="no"?>
<!DOCTYPE svg PUBLIC "-//W3C//DTD SVG 20010904//EN"
 "http://www.w3.org/TR/2001/REC-SVG-20010904/DTD/svg10.dtd">
<svg version="1.0" xmlns="http://www.w3.org/2000/svg"
 width="48.000000pt" height="48.000000pt" viewBox="0 0 48.000000 48.000000"
 preserveAspectRatio="xMidYMid meet">
<metadata>
Created by potrace 1.10, written by Peter Selinger 2001-2011
</metadata>
<g transform="translate(0.000000,48.000000) scale(0.060000,-0.060000)"
fill="#6b9ad1" stroke="none">
<path d="M44 374 c3 -9 -1 -44 -10 -77 -26 -102 -34 -168 -23 -188 18 -35 154
-20 167 19 3 9 -3 10 -23 2 -41 -16 -105 -13 -111 5 -4 9 5 63 20 120 33 131
33 135 0 135 -20 0 -25 -4 -20 -16z"/>
<path d="M321 377 c-36 -18 -41 -40 -6 -27 41 16 105 13 111 -5 4 -9 -5 -63
-20 -120 -32 -129 -32 -137 -3 -133 12 2 21 9 19 16 -1 7 9 57 23 112 29 115
31 155 9 164 -27 10 -108 6 -133 -7z"/>
<path d="M165 343 c35 -83 47 -124 48 -160 0 -45 6 -50 36 -33 29 15 114 146
108 164 -8 21 -37 21 -37 1 0 -17 -40 -98 -63 -130 -14 -18 -15 -18 -14 10 1
83 -30 165 -64 165 -16 0 -19 -4 -14 -17z"/>
</g>
</svg>
