<svg xmlns="http://www.w3.org/2000/svg" viewBox="0 0 445.89 498.97"><title>Contact Icon_PHONE_blue</title><path d="M108.2,257.85c-13.73,1.93-22.14-29-23.88-41.37-1.19-8.42.15-11.77,2.81-12.15,2.21-.31,4,2.61,4.35,5.27.87,6.2,6.93,13.93,12.92,21.22,5.43,6.47,10.86,12.93,11.54,17.81C116.75,254.39,111.75,257.35,108.2,257.85Z" style="fill:#6a9ad2"/><path d="M427.55,331.78c-35.31-40.62-95.26-47.79-134.31-13.85-29.54,25.69-31,61.26-13.15,81.84,4.12,4.74,7.47,6.47,9.59,4.63,4.22-3.67-4.84-30.07,14.15-46.58,22.16-19.26,66.63-18,91,15.34,18.87,25.8,12.51,37.81,7.63,50.43s-29.27,22.18-49.71,28.05c-1.29.37-2.6.69-3.9,1-22.59,4.07-50.51,4.34-81.51-1.18a215.06,215.06,0,0,1-26.65-9.07q-94-38.91-154.83-133a379.17,379.17,0,0,1-38.69-77c0-.32,20.23,75.52,0-.86s-17.4-80.33-19-109.64c0-2.41.06-4.82.14-7.24h-.44c-.67-27,3.79-47.12,15.12-60,7.92-9,17-12.87,27.14-11.63C79,44.14,88.62,49.23,98.88,58.25c32.36,28.44,42.29,70.2,22.05,93.26C103.62,171.26,76.11,161.64,72.2,166c-1.88,2.23-.14,5.72,4.81,10.08a50.31,50.31,0,0,0,29.4,12.14c18.48,1.51,39.34-6.22,56.21-25.42,35.66-40.58,28.52-103.22-13.7-140.32-12.63-11.11-26.28-18-40-20.92C82.64-4,56,5.32,35.45,28.72,15.19,51.76-1.2,90,.07,145.5Q-.6,165,5.48,197.59a462.43,462.43,0,0,0,29.69,98.59q61.33,141,182.92,191.38,8.43,3.49,16.83,6.39c20.22,5,57.12,9.62,105.05-3.63,56.39-15.54,90.43-53.55,99.3-71.85S451.39,359.21,427.55,331.78Z" style="fill:#6a9ad2"/></svg>