<?xml version="1.0" standalone="no"?>
<!DOCTYPE svg PUBLIC "-//W3C//DTD SVG 20010904//EN"
 "http://www.w3.org/TR/2001/REC-SVG-20010904/DTD/svg10.dtd">
<svg version="1.0" xmlns="http://www.w3.org/2000/svg"
 width="144.000000pt" height="144.000000pt" viewBox="0 0 144.000000 144.000000"
 preserveAspectRatio="xMidYMid meet">
<metadata>
Created by potrace 1.10, written by Peter Selinger 2001-2011
</metadata>
<g transform="translate(0.000000,144.000000) scale(0.060000,-0.060000)"
fill="#b18f4b" stroke="none">
<path d="M57 1193 c-4 -3 -7 -18 -7 -32 0 -20 7 -29 29 -38 16 -6 43 -30 60
-53 26 -37 31 -52 31 -102 0 -33 -6 -74 -14 -91 -7 -18 -35 -84 -60 -147 -26
-63 -54 -128 -62 -143 -8 -17 -14 -58 -14 -103 0 -101 38 -180 125 -261 111
-104 125 -115 140 -109 26 10 17 49 -18 77 -18 15 -48 57 -66 95 -31 63 -34
77 -33 155 0 59 5 97 16 117 9 17 16 40 16 51 0 10 13 48 29 83 16 36 32 79
36 96 3 18 11 34 16 37 15 10 11 139 -6 161 -8 10 -15 24 -15 31 0 7 -11 29
-25 49 -30 45 -31 51 -4 59 25 8 20 29 -9 33 -15 2 -22 -2 -22 -12 0 -23 -11
-20 -40 10 -33 36 -86 55 -103 37z"/>
<path d="M1138 1164 c-18 -17 -6 -44 32 -72 71 -52 85 -77 84 -156 0 -41 -7
-86 -16 -106 -29 -66 -106 -255 -123 -303 -23 -64 -16 -125 23 -208 25 -52 50
-84 124 -153 51 -48 99 -85 108 -84 29 6 22 39 -17 81 -36 40 -52 67 -87 149
-20 46 -21 148 -1 195 8 19 15 42 15 50 0 8 6 29 14 46 7 18 21 51 30 75 9 23
23 60 33 82 10 24 16 70 17 113 0 66 -3 77 -37 134 -57 94 -115 153 -157 159
-19 3 -38 2 -42 -2z"/>
<path d="M1042 1083 c4 -22 43 -25 43 -3 0 8 -11 16 -23 18 -19 3 -23 0 -20
-15z"/>
<path d="M415 1041 c-17 -28 15 -31 306 -31 259 0 299 2 299 15 0 13 -38 15
-284 15 -156 0 -291 3 -299 6 -8 3 -18 1 -22 -5z"/>
<path d="M290 1020 c0 -16 5 -21 23 -18 12 2 22 10 22 18 0 8 -10 16 -22 18
-18 3 -23 -2 -23 -18z"/>
<path d="M1132 993 c4 -22 43 -25 43 -3 0 8 -11 16 -23 18 -19 3 -23 0 -20
-15z"/>
<path d="M322 903 c4 -22 43 -25 43 -3 0 8 -11 16 -23 18 -19 3 -23 0 -20 -15z"/>
<path d="M1132 843 c4 -22 43 -25 43 -3 0 8 -11 16 -23 18 -19 3 -23 0 -20
-15z"/>
<path d="M292 753 c4 -22 43 -25 43 -3 0 8 -11 16 -23 18 -19 3 -23 0 -20 -15z"/>
<path d="M1072 723 c4 -22 43 -25 43 -3 0 8 -11 16 -23 18 -19 3 -23 0 -20
-15z"/>
<path d="M385 651 c-17 -28 15 -31 306 -31 259 0 299 2 299 15 0 13 -38 15
-284 15 -156 0 -291 3 -299 6 -8 3 -18 1 -22 -5z"/>
<path d="M232 633 c4 -22 43 -25 43 -3 0 8 -11 16 -23 18 -19 3 -23 0 -20 -15z"/>
<path d="M1042 573 c4 -20 18 -26 37 -14 18 12 5 31 -20 31 -14 0 -19 -6 -17
-17z"/>
<path d="M202 483 c4 -22 43 -25 43 -3 0 8 -11 16 -23 18 -19 3 -23 0 -20 -15z"/>
<path d="M1012 453 c4 -22 43 -25 43 -3 0 8 -11 16 -23 18 -19 3 -23 0 -20
-15z"/>
<path d="M202 363 c4 -22 43 -25 43 -3 0 8 -11 16 -23 18 -19 3 -23 0 -20 -15z"/>
<path d="M1042 303 c4 -22 43 -25 43 -3 0 8 -11 16 -23 18 -19 3 -23 0 -20
-15z"/>
<path d="M415 261 c-17 -28 15 -31 306 -31 259 0 299 2 299 15 0 13 -38 15
-284 15 -156 0 -291 3 -299 6 -8 3 -18 1 -22 -5z"/>
<path d="M292 213 c4 -20 18 -26 37 -14 18 12 5 31 -20 31 -14 0 -19 -6 -17
-17z"/>
<path d="M1102 183 c4 -22 43 -25 43 -3 0 8 -11 16 -23 18 -19 3 -23 0 -20
-15z"/>
</g>
</svg>
