<?xml version="1.0" standalone="no"?>
<!DOCTYPE svg PUBLIC "-//W3C//DTD SVG 20010904//EN"
 "http://www.w3.org/TR/2001/REC-SVG-20010904/DTD/svg10.dtd">
<svg version="1.0" xmlns="http://www.w3.org/2000/svg"
 width="144.000000pt" height="144.000000pt" viewBox="0 0 144.000000 144.000000"
 preserveAspectRatio="xMidYMid meet">
<metadata>
Created by potrace 1.10, written by Peter Selinger 2001-2011
</metadata>
<g transform="translate(0.000000,144.000000) scale(0.100000,-0.100000)"
fill="#b18f4b" stroke="none">
<path d="M46 1194 c-9 -34 1 -62 24 -69 10 -3 37 -26 59 -50 40 -43 41 -47 41
-112 -1 -44 -6 -75 -15 -87 -8 -11 -15 -30 -15 -42 0 -12 -7 -27 -15 -34 -8
-7 -15 -21 -15 -30 0 -10 -8 -33 -17 -52 -9 -18 -22 -45 -30 -60 -7 -14 -13
-34 -13 -45 0 -10 -7 -27 -15 -37 -19 -26 -20 -158 -2 -194 8 -15 22 -44 32
-65 19 -38 61 -86 154 -171 47 -43 56 -47 77 -37 20 9 23 15 18 41 -6 26 -4
30 15 30 30 0 30 45 -1 53 -27 8 -38 1 -38 -24 0 -32 -26 -21 -56 23 -43 65
-64 110 -64 136 0 13 -4 31 -9 40 -9 18 7 117 27 165 7 16 12 37 12 47 0 10 6
31 14 47 25 48 46 100 46 115 0 7 7 22 15 32 17 23 21 156 6 172 -11 10 -71
120 -71 129 0 3 11 5 25 5 18 0 25 5 25 20 0 15 -7 20 -29 20 -18 0 -31 -6
-35 -17 -6 -14 -11 -12 -35 14 -27 30 -80 63 -99 63 -6 0 -13 -12 -16 -26z"/>
<path d="M1143 1183 c-7 -2 -13 -20 -13 -39 0 -26 6 -36 28 -48 15 -8 43 -31
62 -51 34 -35 35 -38 33 -113 0 -49 -7 -88 -17 -107 -9 -16 -16 -35 -16 -42 0
-6 -7 -24 -15 -40 -34 -66 -75 -164 -75 -181 -1 -9 -7 -28 -15 -42 -25 -44
-18 -112 20 -195 28 -60 53 -92 127 -165 98 -97 130 -111 136 -58 2 21 -6 35
-40 66 -41 39 -55 60 -92 145 -20 47 -21 162 -1 197 8 14 15 36 15 50 0 14 7
34 15 44 8 11 15 30 15 42 0 12 7 27 15 34 8 7 15 22 15 34 0 12 7 32 16 45
12 16 17 47 17 110 1 82 -1 89 -31 134 -18 27 -32 51 -32 54 0 20 -126 134
-147 132 -4 0 -14 -3 -20 -6z"/>
<path d="M1034 1096 c-6 -16 12 -56 26 -56 23 0 40 14 40 35 0 33 -55 50 -66
21z"/>
<path d="M407 1036 c-12 -32 19 -35 308 -35 293 0 330 4 304 35 -17 21 -604
20 -612 0z"/>
<path d="M290 1021 c0 -20 32 -37 50 -26 5 3 10 15 10 26 0 14 -7 19 -30 19
-23 0 -30 -5 -30 -19z"/>
<path d="M1131 1006 c-9 -11 -10 -20 -1 -36 13 -24 38 -23 54 3 9 15 7 21 -8
33 -25 18 -31 18 -45 0z"/>
<path d="M322 898 c2 -17 11 -24 31 -26 23 -3 27 0 27 22 0 22 -4 26 -31 26
-26 0 -30 -3 -27 -22z"/>
<path d="M1125 860 c-3 -6 -3 -19 0 -30 8 -25 50 -27 59 -3 11 28 -43 58 -59
33z"/>
<path d="M290 750 c0 -21 27 -40 48 -33 6 3 12 16 12 29 0 20 -5 24 -30 24
-23 0 -30 -4 -30 -20z"/>
<path d="M1064 736 c-6 -16 12 -56 26 -56 13 0 40 30 40 45 0 25 -57 35 -66
11z"/>
<path d="M377 646 c-12 -32 19 -35 310 -35 249 0 293 2 304 15 10 13 10 17 -2
25 -8 5 -147 9 -310 9 -248 0 -298 -2 -302 -14z"/>
<path d="M232 628 c2 -17 10 -23 28 -23 18 0 26 6 28 23 3 19 -1 22 -28 22
-27 0 -31 -3 -28 -22z"/>
<path d="M1041 586 c-15 -18 -4 -46 19 -46 29 0 43 25 25 44 -20 20 -29 20
-44 2z"/>
<path d="M202 478 c2 -17 11 -24 31 -26 23 -3 27 0 27 22 0 22 -4 26 -31 26
-26 0 -30 -3 -27 -22z"/>
<path d="M1013 473 c-17 -6 -16 -24 0 -47 17 -23 47 -11 47 19 0 18 -22 40
-33 34 -1 0 -8 -3 -14 -6z"/>
<path d="M200 361 c0 -20 32 -37 50 -26 5 3 10 15 10 26 0 14 -7 19 -30 19
-23 0 -30 -5 -30 -19z"/>
<path d="M1040 315 c-12 -15 2 -55 20 -55 14 0 41 31 37 43 -6 19 -45 27 -57
12z"/>
<path d="M405 260 c-4 -6 -1 -17 5 -25 10 -12 63 -14 303 -14 295 0 332 4 306
35 -9 11 -70 14 -310 14 -196 0 -300 -4 -304 -10z"/>
<path d="M1100 195 c-20 -24 -3 -57 28 -53 33 4 42 36 16 55 -23 17 -29 16
-44 -2z"/>
</g>
</svg>
