<?xml version="1.0" encoding="utf-8"?>
<!-- Svg Vector Icons : http://www.onlinewebfonts.com/icon -->
<!DOCTYPE svg PUBLIC "-//W3C//DTD SVG 1.1//EN" "http://www.w3.org/Graphics/SVG/1.1/DTD/svg11.dtd">
<svg version="1.1" xmlns="http://www.w3.org/2000/svg" xmlns:xlink="http://www.w3.org/1999/xlink" x="0px" y="0px" viewBox="0 0 1000 1000" enable-background="new 0 0 1000 1000" xml:space="preserve">
<metadata> Svg Vector Icons : http://www.onlinewebfonts.com/icon </metadata>
<g><g><path fill="#FFF" d="M937.9,10H62.1C33.3,10,10,33.3,10,62.1v875.7c0,28.8,23.3,52.1,52.1,52.1h875.7c28.8,0,52.1-23.3,52.1-52.1V62.1C990,33.3,966.7,10,937.9,10z M905,311.5c-3.6,78.9-58.7,187-165.4,324.3c-110.2,143.3-203.5,215-279.8,215c-47.2,0-87.2-43.6-119.9-131c-21.8-80-43.6-160-65.4-240c-24.3-87.3-50.3-131-78.1-131c-6.1,0-27.3,12.8-63.6,38.2l-38.1-49.2c40-35.1,79.4-70.3,118.3-105.6c53.4-46.1,93.4-70.4,120.2-72.8c63.1-6.1,101.9,37.1,116.5,129.4c15.8,99.7,26.7,161.7,32.8,185.9c18.2,82.7,38.2,124,60,124c17,0,42.5-26.9,76.5-80.4c34-53.7,52.1-94.5,54.6-122.5c4.8-46.3-13.4-69.5-54.6-69.5c-19.4,0-39.5,4.4-60,13.3c39.8-130.5,116-194,228.3-190.4C870.5,151.8,909.8,205.9,905,311.5z"/></g><g></g><g></g><g></g><g></g><g></g><g></g><g></g><g></g><g></g><g></g><g></g><g></g><g></g><g></g><g></g></g>
</svg>